<?xml version="1.0" standalone="no"?>
<!DOCTYPE svg PUBLIC "-//W3C//DTD SVG 20010904//EN"
 "http://www.w3.org/TR/2001/REC-SVG-20010904/DTD/svg10.dtd">
<svg version="1.0" xmlns="http://www.w3.org/2000/svg"
 width="928.000000pt" height="928.000000pt" viewBox="0 0 928.000000 928.000000"
 preserveAspectRatio="xMidYMid meet">
<metadata>
Created by potrace 1.14, written by Peter Selinger 2001-2017
</metadata>
<g transform="translate(0.000000,928.000000) scale(0.100000,-0.100000)"
fill="#000000" stroke="none">
<path d="M4950 9139 c-41 -9 -91 -23 -110 -30 -31 -12 -125 -67 -158 -94 -24
-19 -100 -100 -132 -140 -17 -22 -39 -47 -48 -56 -10 -9 -26 -29 -37 -45 -11
-15 -27 -35 -35 -43 -9 -9 -36 -41 -60 -71 -25 -30 -55 -66 -66 -80 -12 -14
-57 -68 -100 -120 -43 -52 -81 -97 -84 -100 -3 -3 -24 -27 -45 -55 -22 -27
-42 -52 -45 -55 -3 -3 -28 -32 -55 -65 -28 -33 -54 -65 -60 -71 -5 -6 -23 -28
-40 -49 -16 -21 -35 -43 -40 -49 -9 -10 -333 -397 -376 -451 -37 -44 -102
-122 -127 -150 -15 -17 -43 -50 -62 -74 -45 -56 -104 -128 -138 -167 -15 -17
-43 -50 -62 -74 -35 -43 -92 -112 -134 -160 -11 -14 -39 -47 -61 -75 -37 -46
-76 -93 -100 -119 -6 -6 -30 -36 -55 -66 -25 -30 -54 -66 -65 -79 -11 -13 -27
-32 -35 -41 -8 -8 -27 -31 -41 -50 -15 -19 -35 -44 -45 -55 -19 -20 -54 -62
-284 -340 -69 -82 -127 -152 -130 -155 -3 -3 -24 -27 -45 -55 -22 -27 -44 -55
-50 -61 -5 -6 -28 -32 -50 -59 -51 -62 -99 -119 -105 -125 -3 -3 -23 -27 -45
-55 -22 -27 -48 -59 -58 -70 -10 -11 -26 -29 -36 -40 -10 -11 -35 -42 -57 -70
-21 -27 -41 -52 -44 -55 -5 -4 -67 -79 -125 -148 -11 -14 -24 -30 -30 -36 -5
-6 -28 -33 -50 -61 -22 -27 -47 -57 -55 -66 -18 -20 -54 -63 -200 -239 -61
-74 -119 -144 -128 -155 -9 -11 -39 -47 -67 -80 -27 -33 -54 -65 -60 -71 -5
-6 -26 -30 -45 -54 -19 -23 -43 -52 -53 -64 -10 -11 -28 -34 -40 -50 -12 -15
-30 -36 -39 -44 -10 -9 -18 -22 -18 -29 0 -7 -4 -13 -9 -13 -12 0 -76 -147
-91 -210 -15 -63 -20 -189 -9 -240 4 -19 10 -46 12 -60 10 -50 69 -176 105
-223 104 -135 284 -239 437 -253 28 -2 670 -5 1428 -5 l1379 -1 -6 -61 c-3
-34 -13 -116 -22 -182 -9 -66 -17 -137 -18 -157 0 -21 -5 -38 -9 -38 -5 0 -6
-4 -3 -8 3 -5 1 -39 -5 -76 -19 -135 -22 -162 -23 -198 -1 -21 -5 -38 -9 -38
-5 0 -6 -4 -3 -8 3 -5 -1 -55 -9 -113 -8 -57 -17 -122 -19 -144 -3 -22 -5 -40
-6 -40 -1 0 -3 -20 -5 -45 -3 -42 -8 -77 -19 -158 -3 -19 -8 -59 -11 -90 -3
-31 -7 -70 -10 -87 -2 -16 -7 -52 -10 -80 -6 -53 -12 -92 -21 -152 -3 -21 -7
-60 -10 -88 -3 -27 -7 -61 -9 -75 -1 -14 -6 -50 -10 -80 -3 -30 -9 -71 -11
-90 -6 -36 -7 -46 -18 -140 -3 -30 -8 -65 -10 -77 -17 -86 -23 -240 -12 -308
10 -58 46 -166 65 -195 9 -14 23 -38 31 -55 19 -37 147 -165 186 -185 16 -8
31 -17 34 -21 17 -18 172 -71 220 -74 14 0 30 -3 35 -6 10 -5 125 -2 160 4 82
15 190 58 255 101 50 33 124 105 185 180 22 27 45 54 50 60 6 6 30 36 55 66
25 30 47 57 50 60 3 3 25 30 50 60 25 30 55 66 67 80 11 14 60 72 108 130 47
58 98 119 113 136 15 16 56 66 92 109 36 44 72 87 80 96 8 10 29 34 47 56 93
113 208 251 226 273 12 14 42 50 67 80 58 71 83 100 95 114 6 6 30 36 55 66
25 30 47 57 50 60 3 3 24 27 45 55 22 27 49 59 60 71 11 11 79 92 150 179 72
87 135 163 140 169 6 6 28 34 50 61 22 28 47 57 55 65 8 8 33 38 55 65 21 28
49 61 61 75 13 14 63 75 114 135 50 61 106 128 125 150 29 35 171 207 200 242
5 7 21 26 35 41 14 15 41 48 60 72 19 24 44 54 55 66 11 12 27 31 35 41 59 72
206 249 210 253 3 3 48 57 100 120 52 63 97 117 100 120 3 3 35 41 70 84 36
43 72 86 80 95 8 9 33 39 55 66 21 28 42 52 45 55 3 3 25 30 50 60 24 30 51
62 60 71 8 9 22 25 30 35 31 39 105 129 110 134 5 4 71 84 110 133 8 11 26 32
40 47 14 15 32 36 40 46 53 66 106 130 110 134 9 9 103 123 142 171 41 51 108
175 108 200 0 9 3 19 7 23 4 3 8 14 10 24 1 9 6 37 11 63 9 45 8 151 -1 199
-11 54 -19 86 -29 110 -6 14 -15 36 -21 50 -26 60 -103 163 -158 212 -33 29
-66 55 -72 57 -7 2 -14 7 -17 11 -16 21 -154 71 -235 86 -22 4 -667 7 -1433 8
l-1393 1 4 55 c3 30 6 55 7 55 0 0 3 20 5 45 2 25 6 63 9 85 11 79 15 111 21
160 20 184 45 367 51 377 3 4 0 8 -7 8 -8 0 -8 4 -1 13 5 6 12 39 16 72 3 33
8 71 10 85 2 14 7 49 10 79 4 29 9 58 12 62 3 5 0 9 -6 9 -6 0 -8 5 -3 13 9
15 13 33 17 77 2 19 4 35 5 35 1 0 4 25 6 55 3 30 7 71 10 90 10 59 16 103 20
145 2 22 6 56 9 75 3 19 8 58 11 85 7 65 15 134 21 165 2 14 6 50 10 80 3 30
7 65 9 76 2 12 6 46 10 75 3 30 8 70 10 89 3 19 7 49 9 65 20 153 23 227 12
290 -4 22 -10 54 -13 70 -3 17 -12 46 -21 65 -16 37 -19 44 -21 59 0 5 -7 16
-15 23 -7 8 -21 29 -30 47 -19 37 -116 138 -161 168 -157 105 -335 141 -505
102z m-784 -2796 c-3 -43 -6 -78 -6 -78 -4 0 -16 -92 -25 -185 -3 -25 -7 -61
-10 -80 -3 -19 -7 -51 -10 -70 -2 -19 -7 -57 -11 -85 -4 -27 -8 -63 -9 -80 -1
-16 -5 -48 -9 -70 -12 -80 -29 -241 -28 -260 15 -183 73 -321 181 -432 67 -69
188 -149 241 -159 3 0 17 -6 32 -12 14 -6 52 -14 85 -18 32 -5 536 -8 1121 -8
584 -1 1062 -4 1062 -7 0 -3 -8 -15 -17 -26 -10 -12 -32 -38 -50 -59 -99 -121
-199 -241 -256 -308 -10 -11 -31 -36 -45 -55 -15 -18 -39 -47 -53 -63 -15 -17
-30 -35 -35 -42 -8 -10 -101 -122 -142 -171 -9 -11 -39 -47 -67 -80 -27 -33
-56 -67 -63 -75 -15 -18 -40 -48 -90 -109 -21 -25 -44 -52 -52 -61 -8 -8 -27
-31 -42 -50 -15 -19 -37 -47 -50 -61 -13 -15 -36 -43 -53 -64 -35 -44 -78 -95
-121 -144 -17 -20 -49 -59 -71 -88 -22 -29 -43 -49 -47 -46 -3 4 -6 1 -6 -5 0
-9 -45 -67 -138 -177 -10 -11 -48 -57 -86 -102 -37 -46 -69 -83 -71 -83 -2 0
-2 10 0 23 5 35 15 107 20 157 3 25 7 61 10 80 3 19 8 60 11 90 7 73 10 91 23
183 6 42 10 81 10 85 -1 4 0 9 1 12 2 3 4 21 6 40 3 43 13 90 21 103 4 6 1 7
-7 2 -8 -5 -11 -4 -7 2 20 33 31 256 15 324 -14 61 -14 61 -23 84 -45 113 -85
177 -157 247 -62 62 -187 141 -240 152 -7 2 -20 6 -28 9 -60 22 -204 25 -1188
25 -585 0 -1066 3 -1069 6 -4 4 101 137 152 192 5 6 33 39 60 73 28 33 53 61
58 61 4 0 7 6 7 14 0 8 3 16 8 18 6 2 113 128 167 195 6 7 21 26 35 41 14 16
41 48 60 72 33 41 86 105 134 160 11 14 64 77 116 140 52 63 99 120 105 126 5
6 26 31 45 54 19 24 51 62 70 85 19 22 53 63 75 90 22 26 49 58 60 71 11 12
27 31 35 41 52 64 106 130 115 139 5 6 25 29 43 52 19 23 41 50 50 61 10 11
33 38 52 61 19 23 47 56 62 73 15 18 28 35 28 40 0 4 2 7 6 7 3 0 3 -35 0 -77z"/>
</g>
</svg>
