<svg width="246" height="312" viewBox="0 0 246 312" fill="none" xmlns="http://www.w3.org/2000/svg">
<path d="M43.1196 165.539C28.8367 186.656 -5.56579 178.8 12.6619 151.851C30.8895 124.901 110.985 6.47884 110.985 6.47884L141.443 20.1669C141.443 20.1669 57.4024 144.422 43.1196 165.539Z" fill="#0147FF"/>
<path d="M232.117 119.768C247.567 119.534 252.481 147.815 232.764 148.114C213.046 148.413 126.403 149.727 126.403 149.727L125.756 121.382C125.756 121.382 216.666 120.003 232.117 119.768Z" fill="#0147FF"/>
<path d="M143.461 138.57C143.461 151.673 108.851 155.292 108.851 138.57C108.851 121.847 108.851 48.3644 108.851 48.3644H143.461C143.461 48.3644 143.461 125.466 143.461 138.57Z" fill="#0147FF"/>
<path d="M19.2901 183.064C3.3282 182.871 -0.564091 154.47 19.8063 154.716C40.1767 154.963 129.688 156.046 129.688 156.046L129.172 184.394C129.172 184.394 35.252 183.257 19.2901 183.064Z" fill="#0147FF"/>
<path d="M108.274 170.678C108.411 153.359 143.229 148.759 143.053 170.862C142.877 192.965 142.105 290.09 142.105 290.09L107.326 289.906C107.326 289.906 108.136 187.998 108.274 170.678Z" fill="#0147FF"/>
<path d="M142.845 292.392C128.145 314.149 93.6196 306.482 112.379 278.715C131.139 250.948 213.574 128.935 213.574 128.935L244.039 142.612C244.039 142.612 157.545 270.634 142.845 292.392Z" fill="#0147FF"/>
<path d="M108.851 12.3408C108.851 -2.06441 143.461 -6.043 143.461 12.3408C143.461 30.7247 143.461 111.507 143.461 111.507H108.851C108.851 111.507 108.851 26.7461 108.851 12.3408Z" fill="#0147FF"/>
</svg>
